<svg width="135" height="45" viewBox="0 0 135 45" fill="none" xmlns="http://www.w3.org/2000/svg">
<path d="M53.1641 15.6924C53.1641 16.1755 53.0433 16.6038 52.8018 16.9775C52.5602 17.3512 52.2275 17.6497 51.8037 17.873C52.2868 18.1055 52.6696 18.4268 52.9521 18.8369C53.2347 19.2425 53.376 19.721 53.376 20.2725C53.376 21.1566 53.0752 21.8561 52.4736 22.3711C51.8721 22.8815 51.054 23.1367 50.0195 23.1367C48.985 23.1367 48.1647 22.8792 47.5586 22.3643C46.9525 21.8493 46.6494 21.152 46.6494 20.2725C46.6494 19.721 46.7907 19.2402 47.0732 18.8301C47.3558 18.4199 47.7363 18.1009 48.2148 17.873C47.791 17.6497 47.4583 17.3512 47.2168 16.9775C46.9798 16.6038 46.8613 16.1755 46.8613 15.6924C46.8613 14.8447 47.1439 14.1702 47.709 13.6689C48.2741 13.1631 49.042 12.9102 50.0127 12.9102C50.9788 12.9102 51.7445 13.1608 52.3096 13.6621C52.8792 14.1589 53.1641 14.8356 53.1641 15.6924ZM51.3936 20.1289C51.3936 19.696 51.2682 19.3496 51.0176 19.0898C50.7669 18.8301 50.4297 18.7002 50.0059 18.7002C49.5866 18.7002 49.2516 18.8301 49.001 19.0898C48.7503 19.3451 48.625 19.6914 48.625 20.1289C48.625 20.5527 48.748 20.8945 48.9941 21.1543C49.2402 21.4141 49.582 21.5439 50.0195 21.5439C50.4479 21.5439 50.7829 21.4186 51.0244 21.168C51.2705 20.9173 51.3936 20.571 51.3936 20.1289ZM51.1885 15.7881C51.1885 15.4007 51.0859 15.0908 50.8809 14.8584C50.6758 14.6214 50.3864 14.5029 50.0127 14.5029C49.6436 14.5029 49.3564 14.6169 49.1514 14.8447C48.9463 15.0726 48.8438 15.387 48.8438 15.7881C48.8438 16.1846 48.9463 16.5036 49.1514 16.7451C49.3564 16.9867 49.6458 17.1074 50.0195 17.1074C50.3932 17.1074 50.6803 16.9867 50.8809 16.7451C51.0859 16.5036 51.1885 16.1846 51.1885 15.7881ZM61.2031 15.6924C61.2031 16.1755 61.0824 16.6038 60.8408 16.9775C60.5993 17.3512 60.2666 17.6497 59.8428 17.873C60.3258 18.1055 60.7087 18.4268 60.9912 18.8369C61.2738 19.2425 61.415 19.721 61.415 20.2725C61.415 21.1566 61.1143 21.8561 60.5127 22.3711C59.9111 22.8815 59.0931 23.1367 58.0586 23.1367C57.0241 23.1367 56.2038 22.8792 55.5977 22.3643C54.9915 21.8493 54.6885 21.152 54.6885 20.2725C54.6885 19.721 54.8298 19.2402 55.1123 18.8301C55.3949 18.4199 55.7754 18.1009 56.2539 17.873C55.8301 17.6497 55.4974 17.3512 55.2559 16.9775C55.0189 16.6038 54.9004 16.1755 54.9004 15.6924C54.9004 14.8447 55.1829 14.1702 55.748 13.6689C56.3132 13.1631 57.0811 12.9102 58.0518 12.9102C59.0179 12.9102 59.7835 13.1608 60.3486 13.6621C60.9183 14.1589 61.2031 14.8356 61.2031 15.6924ZM59.4326 20.1289C59.4326 19.696 59.3073 19.3496 59.0566 19.0898C58.806 18.8301 58.4688 18.7002 58.0449 18.7002C57.6257 18.7002 57.2907 18.8301 57.04 19.0898C56.7894 19.3451 56.6641 19.6914 56.6641 20.1289C56.6641 20.5527 56.7871 20.8945 57.0332 21.1543C57.2793 21.4141 57.6211 21.5439 58.0586 21.5439C58.487 21.5439 58.8219 21.4186 59.0635 21.168C59.3096 20.9173 59.4326 20.571 59.4326 20.1289ZM59.2275 15.7881C59.2275 15.4007 59.125 15.0908 58.9199 14.8584C58.7148 14.6214 58.4255 14.5029 58.0518 14.5029C57.6826 14.5029 57.3955 14.6169 57.1904 14.8447C56.9854 15.0726 56.8828 15.387 56.8828 15.7881C56.8828 16.1846 56.9854 16.5036 57.1904 16.7451C57.3955 16.9867 57.6849 17.1074 58.0586 17.1074C58.4323 17.1074 58.7194 16.9867 58.9199 16.7451C59.125 16.5036 59.2275 16.1846 59.2275 15.7881ZM69.2422 15.6924C69.2422 16.1755 69.1214 16.6038 68.8799 16.9775C68.6383 17.3512 68.3057 17.6497 67.8818 17.873C68.3649 18.1055 68.7477 18.4268 69.0303 18.8369C69.3128 19.2425 69.4541 19.721 69.4541 20.2725C69.4541 21.1566 69.1533 21.8561 68.5518 22.3711C67.9502 22.8815 67.1322 23.1367 66.0977 23.1367C65.0632 23.1367 64.2428 22.8792 63.6367 22.3643C63.0306 21.8493 62.7275 21.152 62.7275 20.2725C62.7275 19.721 62.8688 19.2402 63.1514 18.8301C63.4339 18.4199 63.8145 18.1009 64.293 17.873C63.8691 17.6497 63.5365 17.3512 63.2949 16.9775C63.0579 16.6038 62.9395 16.1755 62.9395 15.6924C62.9395 14.8447 63.222 14.1702 63.7871 13.6689C64.3522 13.1631 65.1201 12.9102 66.0908 12.9102C67.057 12.9102 67.8226 13.1608 68.3877 13.6621C68.9574 14.1589 69.2422 14.8356 69.2422 15.6924ZM67.4717 20.1289C67.4717 19.696 67.3464 19.3496 67.0957 19.0898C66.8451 18.8301 66.5078 18.7002 66.084 18.7002C65.6647 18.7002 65.3298 18.8301 65.0791 19.0898C64.8285 19.3451 64.7031 19.6914 64.7031 20.1289C64.7031 20.5527 64.8262 20.8945 65.0723 21.1543C65.3184 21.4141 65.6602 21.5439 66.0977 21.5439C66.526 21.5439 66.861 21.4186 67.1025 21.168C67.3486 20.9173 67.4717 20.571 67.4717 20.1289ZM67.2666 15.7881C67.2666 15.4007 67.1641 15.0908 66.959 14.8584C66.7539 14.6214 66.4645 14.5029 66.0908 14.5029C65.7217 14.5029 65.4346 14.6169 65.2295 14.8447C65.0244 15.0726 64.9219 15.387 64.9219 15.7881C64.9219 16.1846 65.0244 16.5036 65.2295 16.7451C65.4346 16.9867 65.724 17.1074 66.0977 17.1074C66.4714 17.1074 66.7585 16.9867 66.959 16.7451C67.1641 16.5036 67.2666 16.1846 67.2666 15.7881ZM70.9785 22.0293C70.9785 21.7148 71.0833 21.4596 71.293 21.2637C71.5072 21.0677 71.7738 20.9697 72.0928 20.9697C72.4163 20.9697 72.6829 21.0677 72.8926 21.2637C73.1068 21.4596 73.2139 21.7148 73.2139 22.0293C73.2139 22.3392 73.109 22.5921 72.8994 22.7881C72.6898 22.9795 72.4209 23.0752 72.0928 23.0752C71.7692 23.0752 71.5026 22.9795 71.293 22.7881C71.0833 22.5921 70.9785 22.3392 70.9785 22.0293ZM75.1621 18.1055L75.7363 13.0469H81.3145V14.6943H77.3564L77.1104 16.834C77.5798 16.5833 78.0788 16.458 78.6074 16.458C79.5553 16.458 80.2982 16.752 80.8359 17.3398C81.3737 17.9277 81.6426 18.7503 81.6426 19.8076C81.6426 20.4502 81.5059 21.0267 81.2324 21.5371C80.9635 22.043 80.5762 22.4372 80.0703 22.7197C79.5645 22.9977 78.9674 23.1367 78.2793 23.1367C77.6777 23.1367 77.1195 23.016 76.6045 22.7744C76.0895 22.5283 75.6816 22.1842 75.3809 21.7422C75.0846 21.3001 74.9274 20.7965 74.9092 20.2314H76.8643C76.9053 20.6462 77.0488 20.9697 77.2949 21.2021C77.5456 21.43 77.8714 21.5439 78.2725 21.5439C78.7191 21.5439 79.0632 21.3844 79.3047 21.0654C79.5462 20.7419 79.667 20.2861 79.667 19.6982C79.667 19.1331 79.528 18.7002 79.25 18.3994C78.972 18.0986 78.5778 17.9482 78.0674 17.9482C77.598 17.9482 77.2174 18.0713 76.9258 18.3174L76.7344 18.4951L75.1621 18.1055ZM83.2012 18.1055L83.7754 13.0469H89.3535V14.6943H85.3955L85.1494 16.834C85.6188 16.5833 86.1178 16.458 86.6465 16.458C87.5944 16.458 88.3372 16.752 88.875 17.3398C89.4128 17.9277 89.6816 18.7503 89.6816 19.8076C89.6816 20.4502 89.5449 21.0267 89.2715 21.5371C89.0026 22.043 88.6152 22.4372 88.1094 22.7197C87.6035 22.9977 87.0065 23.1367 86.3184 23.1367C85.7168 23.1367 85.1585 23.016 84.6436 22.7744C84.1286 22.5283 83.7207 22.1842 83.4199 21.7422C83.1237 21.3001 82.9665 20.7965 82.9482 20.2314H84.9033C84.9443 20.6462 85.0879 20.9697 85.334 21.2021C85.5846 21.43 85.9105 21.5439 86.3115 21.5439C86.7581 21.5439 87.1022 21.3844 87.3438 21.0654C87.5853 20.7419 87.7061 20.2861 87.7061 19.6982C87.7061 19.1331 87.5671 18.7002 87.2891 18.3994C87.0111 18.0986 86.6169 17.9482 86.1064 17.9482C85.637 17.9482 85.2565 18.0713 84.9648 18.3174L84.7734 18.4951L83.2012 18.1055ZM91.2402 18.1055L91.8145 13.0469H97.3926V14.6943H93.4346L93.1885 16.834C93.6579 16.5833 94.1569 16.458 94.6855 16.458C95.6335 16.458 96.3763 16.752 96.9141 17.3398C97.4518 17.9277 97.7207 18.7503 97.7207 19.8076C97.7207 20.4502 97.584 21.0267 97.3105 21.5371C97.0417 22.043 96.6543 22.4372 96.1484 22.7197C95.6426 22.9977 95.0456 23.1367 94.3574 23.1367C93.7559 23.1367 93.1976 23.016 92.6826 22.7744C92.1676 22.5283 91.7598 22.1842 91.459 21.7422C91.1628 21.3001 91.0055 20.7965 90.9873 20.2314H92.9424C92.9834 20.6462 93.127 20.9697 93.373 21.2021C93.6237 21.43 93.9495 21.5439 94.3506 21.5439C94.7972 21.5439 95.1413 21.3844 95.3828 21.0654C95.6243 20.7419 95.7451 20.2861 95.7451 19.6982C95.7451 19.1331 95.6061 18.7002 95.3281 18.3994C95.0501 18.0986 94.6559 17.9482 94.1455 17.9482C93.6761 17.9482 93.2956 18.0713 93.0039 18.3174L92.8125 18.4951L91.2402 18.1055ZM99.1699 22.0293C99.1699 21.7148 99.2747 21.4596 99.4844 21.2637C99.6986 21.0677 99.9652 20.9697 100.284 20.9697C100.608 20.9697 100.874 21.0677 101.084 21.2637C101.298 21.4596 101.405 21.7148 101.405 22.0293C101.405 22.3392 101.3 22.5921 101.091 22.7881C100.881 22.9795 100.612 23.0752 100.284 23.0752C99.9606 23.0752 99.694 22.9795 99.4844 22.7881C99.2747 22.5921 99.1699 22.3392 99.1699 22.0293ZM107.858 23H105.883V15.3848L103.524 16.1162V14.5098L107.646 13.0332H107.858V23ZM111.393 18.1055L111.967 13.0469H117.545V14.6943H113.587L113.341 16.834C113.81 16.5833 114.309 16.458 114.838 16.458C115.786 16.458 116.529 16.752 117.066 17.3398C117.604 17.9277 117.873 18.7503 117.873 19.8076C117.873 20.4502 117.736 21.0267 117.463 21.5371C117.194 22.043 116.807 22.4372 116.301 22.7197C115.795 22.9977 115.198 23.1367 114.51 23.1367C113.908 23.1367 113.35 23.016 112.835 22.7744C112.32 22.5283 111.912 22.1842 111.611 21.7422C111.315 21.3001 111.158 20.7965 111.14 20.2314H113.095C113.136 20.6462 113.279 20.9697 113.525 21.2021C113.776 21.43 114.102 21.5439 114.503 21.5439C114.95 21.5439 115.294 21.3844 115.535 21.0654C115.777 20.7419 115.897 20.2861 115.897 19.6982C115.897 19.1331 115.758 18.7002 115.48 18.3994C115.202 18.0986 114.808 17.9482 114.298 17.9482C113.828 17.9482 113.448 18.0713 113.156 18.3174L112.965 18.4951L111.393 18.1055ZM123.937 23H121.961V15.3848L119.603 16.1162V14.5098L123.725 13.0332H123.937V23ZM127.471 18.1055L128.045 13.0469H133.623V14.6943H129.665L129.419 16.834C129.888 16.5833 130.387 16.458 130.916 16.458C131.864 16.458 132.607 16.752 133.145 17.3398C133.682 17.9277 133.951 18.7503 133.951 19.8076C133.951 20.4502 133.814 21.0267 133.541 21.5371C133.272 22.043 132.885 22.4372 132.379 22.7197C131.873 22.9977 131.276 23.1367 130.588 23.1367C129.986 23.1367 129.428 23.016 128.913 22.7744C128.398 22.5283 127.99 22.1842 127.689 21.7422C127.393 21.3001 127.236 20.7965 127.218 20.2314H129.173C129.214 20.6462 129.357 20.9697 129.604 21.2021C129.854 21.43 130.18 21.5439 130.581 21.5439C131.028 21.5439 131.372 21.3844 131.613 21.0654C131.855 20.7419 131.976 20.2861 131.976 19.6982C131.976 19.1331 131.837 18.7002 131.559 18.3994C131.281 18.0986 130.886 17.9482 130.376 17.9482C129.907 17.9482 129.526 18.0713 129.234 18.3174L129.043 18.4951L127.471 18.1055Z" fill="#D82830"/>
<path d="M52.8848 29.3945H50.1426V37H49.0234V29.3945H46.2871V28.4688H52.8848V29.3945ZM56.0254 37.1172C55.166 37.1172 54.4668 36.8359 53.9277 36.2734C53.3887 35.707 53.1191 34.9512 53.1191 34.0059V33.8066C53.1191 33.1777 53.2383 32.6172 53.4766 32.125C53.7188 31.6289 54.0547 31.2422 54.4844 30.9648C54.918 30.6836 55.3867 30.543 55.8906 30.543C56.7148 30.543 57.3555 30.8145 57.8125 31.3574C58.2695 31.9004 58.498 32.6777 58.498 33.6895V34.1406H54.2031C54.2188 34.7656 54.4004 35.2715 54.748 35.6582C55.0996 36.041 55.5449 36.2324 56.084 36.2324C56.4668 36.2324 56.791 36.1543 57.0566 35.998C57.3223 35.8418 57.5547 35.6348 57.7539 35.377L58.416 35.8926C57.8848 36.709 57.0879 37.1172 56.0254 37.1172ZM55.8906 31.4336C55.4531 31.4336 55.0859 31.5938 54.7891 31.9141C54.4922 32.2305 54.3086 32.6758 54.2383 33.25H57.4141V33.168C57.3828 32.6172 57.2344 32.1914 56.9688 31.8906C56.7031 31.5859 56.3438 31.4336 55.8906 31.4336ZM61.8848 32.9746L63.291 30.6602H64.5566L62.4824 33.7949L64.6211 37H63.3672L61.9023 34.627L60.4375 37H59.1777L61.3164 33.7949L59.2422 30.6602H60.4961L61.8848 32.9746ZM67.1816 29.125V30.6602H68.3652V31.498H67.1816V35.4297C67.1816 35.6836 67.2344 35.875 67.3398 36.0039C67.4453 36.1289 67.625 36.1914 67.8789 36.1914C68.0039 36.1914 68.1758 36.168 68.3945 36.1211V37C68.1094 37.0781 67.832 37.1172 67.5625 37.1172C67.0781 37.1172 66.7129 36.9707 66.4668 36.6777C66.2207 36.3848 66.0977 35.9688 66.0977 35.4297V31.498H64.9434V30.6602H66.0977V29.125H67.1816ZM72.3262 33.7715C72.3262 33.1504 72.4473 32.5918 72.6895 32.0957C72.9355 31.5996 73.2754 31.2168 73.709 30.9473C74.1465 30.6777 74.6445 30.543 75.2031 30.543C76.0664 30.543 76.7637 30.8418 77.2949 31.4395C77.8301 32.0371 78.0977 32.832 78.0977 33.8242V33.9004C78.0977 34.5176 77.9785 35.0723 77.7402 35.5645C77.5059 36.0527 77.168 36.4336 76.7266 36.707C76.2891 36.9805 75.7852 37.1172 75.2148 37.1172C74.3555 37.1172 73.6582 36.8184 73.123 36.2207C72.5918 35.623 72.3262 34.832 72.3262 33.8477V33.7715ZM73.416 33.9004C73.416 34.6035 73.5781 35.168 73.9023 35.5938C74.2305 36.0195 74.668 36.2324 75.2148 36.2324C75.7656 36.2324 76.2031 36.0176 76.5273 35.5879C76.8516 35.1543 77.0137 34.5488 77.0137 33.7715C77.0137 33.0762 76.8477 32.5137 76.5156 32.084C76.1875 31.6504 75.75 31.4336 75.2031 31.4336C74.668 31.4336 74.2363 31.6465 73.9082 32.0723C73.5801 32.498 73.416 33.1074 73.416 33.9004ZM82.5215 31.6328C82.3574 31.6055 82.1797 31.5918 81.9883 31.5918C81.2773 31.5918 80.7949 31.8945 80.541 32.5V37H79.457V30.6602H80.5117L80.5293 31.3926C80.8848 30.8262 81.3887 30.543 82.041 30.543C82.252 30.543 82.4121 30.5703 82.5215 30.625V31.6328ZM92.9453 34.293C92.8398 35.1953 92.5059 35.8926 91.9434 36.3848C91.3848 36.873 90.6406 37.1172 89.7109 37.1172C88.7031 37.1172 87.8945 36.7559 87.2852 36.0332C86.6797 35.3105 86.377 34.3438 86.377 33.1328V32.3125C86.377 31.5195 86.5176 30.8223 86.7988 30.2207C87.084 29.6191 87.4863 29.1582 88.0059 28.8379C88.5254 28.5137 89.127 28.3516 89.8105 28.3516C90.7168 28.3516 91.4434 28.6055 91.9902 29.1133C92.5371 29.6172 92.8555 30.3164 92.9453 31.2109H91.8145C91.7168 30.5312 91.5039 30.0391 91.1758 29.7344C90.8516 29.4297 90.3965 29.2773 89.8105 29.2773C89.0918 29.2773 88.5273 29.543 88.1172 30.0742C87.7109 30.6055 87.5078 31.3613 87.5078 32.3418V33.168C87.5078 34.0938 87.7012 34.8301 88.0879 35.377C88.4746 35.9238 89.0156 36.1973 89.7109 36.1973C90.3359 36.1973 90.8145 36.0566 91.1465 35.7754C91.4824 35.4902 91.7051 34.9961 91.8145 34.293H92.9453ZM98.2305 37C98.168 36.875 98.1172 36.6523 98.0781 36.332C97.5742 36.8555 96.9727 37.1172 96.2734 37.1172C95.6484 37.1172 95.1348 36.9414 94.7324 36.5898C94.334 36.2344 94.1348 35.7852 94.1348 35.2422C94.1348 34.582 94.3848 34.0703 94.8848 33.707C95.3887 33.3398 96.0957 33.1562 97.0059 33.1562H98.0605V32.6582C98.0605 32.2793 97.9473 31.9785 97.7207 31.7559C97.4941 31.5293 97.1602 31.416 96.7188 31.416C96.332 31.416 96.0078 31.5137 95.7461 31.709C95.4844 31.9043 95.3535 32.1406 95.3535 32.418H94.2637C94.2637 32.1016 94.375 31.7969 94.5977 31.5039C94.8242 31.207 95.1289 30.9727 95.5117 30.8008C95.8984 30.6289 96.3223 30.543 96.7832 30.543C97.5137 30.543 98.0859 30.7266 98.5 31.0938C98.9141 31.457 99.1289 31.959 99.1445 32.5996V35.5176C99.1445 36.0996 99.2188 36.5625 99.3672 36.9062V37H98.2305ZM96.4316 36.1738C96.7715 36.1738 97.0938 36.0859 97.3984 35.9102C97.7031 35.7344 97.9238 35.5059 98.0605 35.2246V33.9238H97.2109C95.8828 33.9238 95.2188 34.3125 95.2188 35.0898C95.2188 35.4297 95.332 35.6953 95.5586 35.8867C95.7852 36.0781 96.0762 36.1738 96.4316 36.1738ZM102.021 37H100.938V28H102.021V37ZM104.939 37H103.855V28H104.939V37Z" fill="black"/>
<path d="M35.4586 10.1162L31.1944 5.44043C30.8936 5.10883 30.5361 4.84574 30.1424 4.66625C29.7487 4.48676 29.3265 4.39442 28.9002 4.39453C28.0314 4.39453 27.2146 4.76807 26.602 5.44043L22.0135 10.4766C21.7114 10.8067 21.4716 11.1991 21.3081 11.6312C21.1446 12.0634 21.0604 12.5267 21.0606 12.9946C21.0606 13.9482 21.4009 14.8447 22.0135 15.5171L25.3688 19.1997C24.5834 21.0997 23.4914 22.8282 22.1456 24.3018C20.8032 25.7824 19.2285 26.9853 17.4971 27.8525L14.1418 24.1699C13.841 23.8383 13.4835 23.5752 13.0898 23.3957C12.696 23.2163 12.2739 23.1239 11.8476 23.124C10.9787 23.124 10.1619 23.4976 9.54932 24.1699L4.95684 29.2017C4.65435 29.5324 4.41443 29.9256 4.25089 30.3585C4.08735 30.7914 4.00341 31.2555 4.00391 31.7241C4.00391 32.6777 4.34424 33.5742 4.95684 34.2466L9.21299 38.918C10.1899 39.9946 11.5393 40.6055 12.9246 40.6055C13.2169 40.6055 13.4972 40.5791 13.7734 40.5264C19.1707 39.5508 24.5239 36.3999 28.8441 31.6626C33.1604 26.9297 36.0272 21.0586 36.928 15.1172C37.2003 13.3022 36.6518 11.4346 35.4586 10.1162Z" fill="#D82830"/>
</svg>
