<svg xmlns="http://www.w3.org/2000/svg" version="1.1" xmlns:xlink="http://www.w3.org/1999/xlink" xmlns:svgjs="http://svgjs.com/svgjs" width="1440" height="560" preserveAspectRatio="none" viewBox="0 0 1440 560"><g mask="url(&quot;#SvgjsMask1352&quot;)" fill="none"><rect width="1440" height="560" x="0" y="0" fill="rgba(247, 102, 109, 1)"></rect><path d="M1440 0L1420.87 0L1440 132.24z" fill="rgba(255, 255, 255, .1)"></path><path d="M1420.87 0L1440 132.24L1440 355.52L1276.1299999999999 0z" fill="rgba(255, 255, 255, .075)"></path><path d="M1276.13 0L1440 355.52L1440 413.63L1175.8500000000001 0z" fill="rgba(255, 255, 255, .05)"></path><path d="M1175.85 0L1440 413.63L1440 434.96L957.3699999999999 0z" fill="rgba(255, 255, 255, .025)"></path><path d="M0 560L95.11 560L0 552.34z" fill="rgba(0, 0, 0, .1)"></path><path d="M0 552.34L95.11 560L515.1999999999999 560L0 263.66z" fill="rgba(0, 0, 0, .075)"></path><path d="M0 263.65999999999997L515.1999999999999 560L954.8699999999999 560L0 234.01999999999998z" fill="rgba(0, 0, 0, .05)"></path><path d="M0 234.01999999999998L954.8699999999999 560L1169.9599999999998 560L0 178.7z" fill="rgba(0, 0, 0, .025)"></path></g><defs><mask id="SvgjsMask1352"><rect width="1440" height="560" fill="#ffffff"></rect></mask></defs></svg>