<svg width="236" height="48" viewBox="0 0 236 48" fill="none" xmlns="http://www.w3.org/2000/svg">
<path d="M56.5684 11.0469L59.125 18.2656L61.668 11.0469H64.3613V21H62.3037V18.2793L62.5088 13.583L59.8223 21H58.4141L55.7344 13.5898L55.9395 18.2793V21H53.8887V11.0469H56.5684ZM65.7148 17.2334C65.7148 16.4997 65.8561 15.8457 66.1387 15.2715C66.4212 14.6973 66.8268 14.2529 67.3555 13.9385C67.8887 13.624 68.5062 13.4668 69.208 13.4668C70.2061 13.4668 71.0195 13.7721 71.6484 14.3828C72.2819 14.9935 72.6351 15.8229 72.708 16.8711L72.7217 17.377C72.7217 18.5117 72.4049 19.4232 71.7715 20.1113C71.138 20.7949 70.2881 21.1367 69.2217 21.1367C68.1553 21.1367 67.3031 20.7949 66.665 20.1113C66.0316 19.4277 65.7148 18.498 65.7148 17.3223V17.2334ZM67.6904 17.377C67.6904 18.0788 67.8226 18.6165 68.0869 18.9902C68.3512 19.3594 68.7295 19.5439 69.2217 19.5439C69.7002 19.5439 70.0739 19.3617 70.3428 18.9971C70.6117 18.6279 70.7461 18.04 70.7461 17.2334C70.7461 16.5452 70.6117 16.012 70.3428 15.6338C70.0739 15.2555 69.6956 15.0664 69.208 15.0664C68.7249 15.0664 68.3512 15.2555 68.0869 15.6338C67.8226 16.0075 67.6904 16.5885 67.6904 17.377ZM75.7568 13.6035L75.8184 14.458C76.347 13.7972 77.0557 13.4668 77.9443 13.4668C78.7282 13.4668 79.3115 13.6969 79.6943 14.1572C80.0771 14.6175 80.2731 15.3057 80.2822 16.2217V21H78.3066V16.2695C78.3066 15.8503 78.2155 15.5472 78.0332 15.3604C77.8509 15.1689 77.5479 15.0732 77.124 15.0732C76.568 15.0732 76.151 15.3102 75.873 15.7842V21H73.8975V13.6035H75.7568ZM89.1143 17.5342H85.2656V15.9414H89.1143V17.5342ZM99.4775 18.3887C99.4775 18.0013 99.3408 17.7051 99.0674 17.5C98.7939 17.2904 98.3018 17.0716 97.5908 16.8438C96.8799 16.6113 96.3171 16.3835 95.9023 16.1602C94.7721 15.5495 94.207 14.7269 94.207 13.6924C94.207 13.1546 94.3574 12.6761 94.6582 12.2568C94.9635 11.833 95.3988 11.5026 95.9639 11.2656C96.5335 11.0286 97.1715 10.9102 97.8779 10.9102C98.5889 10.9102 99.2223 11.04 99.7783 11.2998C100.334 11.555 100.765 11.9173 101.07 12.3867C101.38 12.8561 101.535 13.3893 101.535 13.9863H99.4844C99.4844 13.5306 99.3408 13.1774 99.0537 12.9268C98.7666 12.6715 98.3633 12.5439 97.8438 12.5439C97.3424 12.5439 96.9528 12.651 96.6748 12.8652C96.3968 13.0749 96.2578 13.3529 96.2578 13.6992C96.2578 14.0228 96.4196 14.2939 96.7432 14.5127C97.0713 14.7314 97.5521 14.9365 98.1855 15.1279C99.3522 15.4788 100.202 15.9141 100.735 16.4336C101.269 16.9531 101.535 17.6003 101.535 18.375C101.535 19.2363 101.209 19.9131 100.558 20.4053C99.9059 20.8929 99.0286 21.1367 97.9258 21.1367C97.1602 21.1367 96.4629 20.9977 95.834 20.7197C95.2051 20.4372 94.7243 20.0521 94.3916 19.5645C94.0635 19.0768 93.8994 18.5117 93.8994 17.8691H95.957C95.957 18.9674 96.6133 19.5166 97.9258 19.5166C98.4134 19.5166 98.7939 19.4186 99.0674 19.2227C99.3408 19.0221 99.4775 18.7441 99.4775 18.3887ZM107.086 21C106.995 20.8223 106.929 20.6012 106.888 20.3369C106.409 20.8701 105.787 21.1367 105.021 21.1367C104.297 21.1367 103.695 20.9271 103.217 20.5078C102.743 20.0885 102.506 19.5599 102.506 18.9219C102.506 18.138 102.795 17.5365 103.374 17.1172C103.957 16.6979 104.798 16.486 105.896 16.4814H106.806V16.0576C106.806 15.7158 106.717 15.4424 106.539 15.2373C106.366 15.0322 106.09 14.9297 105.712 14.9297C105.379 14.9297 105.117 15.0094 104.926 15.1689C104.739 15.3285 104.646 15.5472 104.646 15.8252H102.67C102.67 15.3968 102.802 15.0003 103.066 14.6357C103.331 14.2712 103.704 13.9863 104.188 13.7812C104.671 13.5716 105.213 13.4668 105.814 13.4668C106.726 13.4668 107.448 13.6969 107.981 14.1572C108.519 14.613 108.788 15.2555 108.788 16.085V19.291C108.793 19.9928 108.891 20.5238 109.082 20.8838V21H107.086ZM105.452 19.626C105.744 19.626 106.013 19.5622 106.259 19.4346C106.505 19.3024 106.687 19.127 106.806 18.9082V17.6367H106.067C105.078 17.6367 104.552 17.9785 104.488 18.6621L104.481 18.7783C104.481 19.0244 104.568 19.2272 104.741 19.3867C104.914 19.5462 105.151 19.626 105.452 19.626ZM112.671 11.7852V13.6035H113.936V15.0527H112.671V18.7441C112.671 19.0176 112.723 19.2135 112.828 19.332C112.933 19.4505 113.133 19.5098 113.43 19.5098C113.648 19.5098 113.842 19.4938 114.011 19.4619V20.959C113.623 21.0775 113.225 21.1367 112.814 21.1367C111.429 21.1367 110.723 20.4372 110.695 19.0381V15.0527H109.615V13.6035H110.695V11.7852H112.671Z" fill="#D82830"/>
<path d="M58.79 27.04V28.1133H58.5576C57.5732 28.1315 56.7894 28.4232 56.2061 28.9883C55.6227 29.5534 55.2855 30.3486 55.1943 31.374C55.7184 30.7725 56.4339 30.4717 57.3408 30.4717C58.2067 30.4717 58.8971 30.777 59.4121 31.3877C59.9316 31.9984 60.1914 32.7868 60.1914 33.7529C60.1914 34.7783 59.9111 35.5986 59.3506 36.2139C58.7946 36.8291 58.0472 37.1367 57.1084 37.1367C56.1559 37.1367 55.3835 36.7721 54.791 36.043C54.1986 35.3092 53.9023 34.3659 53.9023 33.2129V32.7275C53.9023 30.8955 54.292 29.4964 55.0713 28.5303C55.8551 27.5596 57.0195 27.0628 58.5645 27.04H58.79ZM57.1289 31.5244C56.696 31.5244 56.2972 31.6543 55.9326 31.9141C55.568 32.1738 55.3151 32.4997 55.1738 32.8916V33.3564C55.1738 34.1768 55.3584 34.8376 55.7275 35.3389C56.0967 35.8402 56.557 36.0908 57.1084 36.0908C57.6781 36.0908 58.1247 35.8812 58.4482 35.4619C58.7764 35.0426 58.9404 34.4935 58.9404 33.8145C58.9404 33.1309 58.7741 32.5794 58.4414 32.1602C58.1133 31.7363 57.6758 31.5244 57.1289 31.5244ZM66.3848 37C66.3118 36.8542 66.2526 36.5944 66.207 36.2207C65.6191 36.8314 64.9173 37.1367 64.1016 37.1367C63.3724 37.1367 62.7731 36.9316 62.3037 36.5215C61.8389 36.1068 61.6064 35.5827 61.6064 34.9492C61.6064 34.179 61.8981 33.582 62.4814 33.1582C63.0693 32.7298 63.8942 32.5156 64.9561 32.5156H66.1865V31.9346C66.1865 31.4925 66.0544 31.1416 65.79 30.8818C65.5257 30.6175 65.1361 30.4854 64.6211 30.4854C64.1699 30.4854 63.7917 30.5993 63.4863 30.8271C63.181 31.055 63.0283 31.3307 63.0283 31.6543H61.7568C61.7568 31.2852 61.8867 30.9297 62.1465 30.5879C62.4108 30.2415 62.7663 29.9681 63.2129 29.7676C63.6641 29.5671 64.1585 29.4668 64.6963 29.4668C65.5485 29.4668 66.2161 29.681 66.6992 30.1094C67.1823 30.5332 67.4329 31.1188 67.4512 31.8662V35.2705C67.4512 35.9495 67.5378 36.4896 67.7109 36.8906V37H66.3848ZM64.2861 36.0361C64.6826 36.0361 65.0586 35.9336 65.4141 35.7285C65.7695 35.5234 66.027 35.2568 66.1865 34.9287V33.4111H65.1953C63.6458 33.4111 62.8711 33.8646 62.8711 34.7715C62.8711 35.168 63.0033 35.4779 63.2676 35.7012C63.5319 35.9245 63.8714 36.0361 64.2861 36.0361ZM75.5381 33.2881H72.2021V32.2559H75.5381V33.2881ZM80.6992 32.0098L81.2051 27.0469H86.3047V28.2158H82.2783L81.9775 30.9297C82.4652 30.6426 83.0189 30.499 83.6387 30.499C84.5456 30.499 85.2656 30.7998 85.7988 31.4014C86.332 31.9984 86.5986 32.8073 86.5986 33.8281C86.5986 34.8535 86.3206 35.6624 85.7646 36.2549C85.2132 36.8428 84.4408 37.1367 83.4473 37.1367C82.5677 37.1367 81.8499 36.8929 81.2939 36.4053C80.738 35.9176 80.4212 35.2432 80.3438 34.3818H81.54C81.6175 34.9515 81.8203 35.3822 82.1484 35.6738C82.4766 35.9609 82.9095 36.1045 83.4473 36.1045C84.0352 36.1045 84.4954 35.904 84.8281 35.5029C85.1654 35.1019 85.334 34.5482 85.334 33.8418C85.334 33.1764 85.1517 32.6432 84.7871 32.2422C84.4271 31.8366 83.9463 31.6338 83.3447 31.6338C82.7933 31.6338 82.3604 31.7546 82.0459 31.9961L81.7109 32.2695L80.6992 32.0098ZM94.3574 33.3838C94.3574 34.5094 94.0999 35.4163 93.585 36.1045C93.07 36.7926 92.3727 37.1367 91.4932 37.1367C90.5954 37.1367 89.889 36.8519 89.374 36.2822V39.8438H88.1094V29.6035H89.2646L89.3262 30.4238C89.8411 29.7858 90.5566 29.4668 91.4727 29.4668C92.3613 29.4668 93.0632 29.8018 93.5781 30.4717C94.0977 31.1416 94.3574 32.0736 94.3574 33.2676V33.3838ZM93.0928 33.2402C93.0928 32.4062 92.915 31.7477 92.5596 31.2646C92.2041 30.7816 91.7165 30.54 91.0967 30.54C90.3311 30.54 89.7568 30.8796 89.374 31.5586V35.0928C89.7523 35.7673 90.3311 36.1045 91.1104 36.1045C91.7165 36.1045 92.1973 35.8652 92.5527 35.3867C92.9128 34.9036 93.0928 34.1882 93.0928 33.2402ZM100.954 33.1035V37H99.6416V27.0469H103.312C104.402 27.0469 105.254 27.3249 105.869 27.8809C106.489 28.4368 106.799 29.1729 106.799 30.0889C106.799 31.055 106.496 31.8001 105.89 32.3242C105.288 32.8438 104.424 33.1035 103.299 33.1035H100.954ZM100.954 32.0303H103.312C104.014 32.0303 104.552 31.8662 104.926 31.5381C105.299 31.2054 105.486 30.7269 105.486 30.1025C105.486 29.5101 105.299 29.0361 104.926 28.6807C104.552 28.3252 104.039 28.1406 103.388 28.127H100.954V32.0303ZM112.76 37C112.687 36.8542 112.628 36.5944 112.582 36.2207C111.994 36.8314 111.292 37.1367 110.477 37.1367C109.747 37.1367 109.148 36.9316 108.679 36.5215C108.214 36.1068 107.981 35.5827 107.981 34.9492C107.981 34.179 108.273 33.582 108.856 33.1582C109.444 32.7298 110.269 32.5156 111.331 32.5156H112.562V31.9346C112.562 31.4925 112.429 31.1416 112.165 30.8818C111.901 30.6175 111.511 30.4854 110.996 30.4854C110.545 30.4854 110.167 30.5993 109.861 30.8271C109.556 31.055 109.403 31.3307 109.403 31.6543H108.132C108.132 31.2852 108.262 30.9297 108.521 30.5879C108.786 30.2415 109.141 29.9681 109.588 29.7676C110.039 29.5671 110.534 29.4668 111.071 29.4668C111.924 29.4668 112.591 29.681 113.074 30.1094C113.557 30.5332 113.808 31.1188 113.826 31.8662V35.2705C113.826 35.9495 113.913 36.4896 114.086 36.8906V37H112.76ZM110.661 36.0361C111.058 36.0361 111.434 35.9336 111.789 35.7285C112.145 35.5234 112.402 35.2568 112.562 34.9287V33.4111H111.57C110.021 33.4111 109.246 33.8646 109.246 34.7715C109.246 35.168 109.378 35.4779 109.643 35.7012C109.907 35.9245 110.246 36.0361 110.661 36.0361ZM118.775 36.1045C119.227 36.1045 119.621 35.9678 119.958 35.6943C120.295 35.4209 120.482 35.0791 120.519 34.6689H121.715C121.692 35.0928 121.546 35.4961 121.277 35.8789C121.008 36.2617 120.648 36.5671 120.197 36.7949C119.751 37.0228 119.277 37.1367 118.775 37.1367C117.768 37.1367 116.966 36.8018 116.369 36.1318C115.777 35.4574 115.48 34.5368 115.48 33.3701V33.1582C115.48 32.4382 115.613 31.7979 115.877 31.2373C116.141 30.6768 116.52 30.2415 117.012 29.9316C117.508 29.6217 118.094 29.4668 118.769 29.4668C119.598 29.4668 120.286 29.7152 120.833 30.2119C121.384 30.7087 121.678 31.3535 121.715 32.1465H120.519C120.482 31.668 120.3 31.276 119.972 30.9707C119.648 30.6608 119.247 30.5059 118.769 30.5059C118.126 30.5059 117.627 30.7383 117.271 31.2031C116.921 31.6634 116.745 32.3311 116.745 33.2061V33.4453C116.745 34.2975 116.921 34.9538 117.271 35.4141C117.622 35.8743 118.124 36.1045 118.775 36.1045ZM124.511 37H123.246V29.6035H124.511V37ZM123.144 27.6416C123.144 27.4365 123.205 27.2633 123.328 27.1221C123.456 26.9808 123.643 26.9102 123.889 26.9102C124.135 26.9102 124.322 26.9808 124.449 27.1221C124.577 27.2633 124.641 27.4365 124.641 27.6416C124.641 27.8467 124.577 28.0176 124.449 28.1543C124.322 28.291 124.135 28.3594 123.889 28.3594C123.643 28.3594 123.456 28.291 123.328 28.1543C123.205 28.0176 123.144 27.8467 123.144 27.6416ZM126.965 37V30.5811H125.796V29.6035H126.965V28.9746C126.965 28.1497 127.2 27.5072 127.669 27.0469C128.143 26.5866 128.811 26.3564 129.672 26.3564C130.182 26.3564 130.827 26.4954 131.606 26.7734L131.395 27.8398C130.825 27.612 130.283 27.498 129.768 27.498C129.225 27.498 128.833 27.6211 128.592 27.8672C128.355 28.1087 128.236 28.4733 128.236 28.9609V29.6035H129.747V30.5811H128.236V37H126.965ZM132.235 37H130.964V29.6035H132.235V37ZM137.26 36.1045C137.711 36.1045 138.105 35.9678 138.442 35.6943C138.78 35.4209 138.966 35.0791 139.003 34.6689H140.199C140.176 35.0928 140.031 35.4961 139.762 35.8789C139.493 36.2617 139.133 36.5671 138.682 36.7949C138.235 37.0228 137.761 37.1367 137.26 37.1367C136.253 37.1367 135.451 36.8018 134.854 36.1318C134.261 35.4574 133.965 34.5368 133.965 33.3701V33.1582C133.965 32.4382 134.097 31.7979 134.361 31.2373C134.626 30.6768 135.004 30.2415 135.496 29.9316C135.993 29.6217 136.578 29.4668 137.253 29.4668C138.082 29.4668 138.771 29.7152 139.317 30.2119C139.869 30.7087 140.163 31.3535 140.199 32.1465H139.003C138.966 31.668 138.784 31.276 138.456 30.9707C138.132 30.6608 137.731 30.5059 137.253 30.5059C136.61 30.5059 136.111 30.7383 135.756 31.2031C135.405 31.6634 135.229 32.3311 135.229 33.2061V33.4453C135.229 34.2975 135.405 34.9538 135.756 35.4141C136.107 35.8743 136.608 36.1045 137.26 36.1045ZM148.225 32.5635C147.099 32.2399 146.279 31.8434 145.764 31.374C145.253 30.9001 144.998 30.3167 144.998 29.624C144.998 28.8402 145.31 28.193 145.935 27.6826C146.563 27.1676 147.379 26.9102 148.382 26.9102C149.065 26.9102 149.674 27.0423 150.207 27.3066C150.745 27.571 151.16 27.9355 151.451 28.4004C151.747 28.8652 151.896 29.3734 151.896 29.9248H150.576C150.576 29.3232 150.385 28.8516 150.002 28.5098C149.619 28.1634 149.079 27.9902 148.382 27.9902C147.735 27.9902 147.229 28.1338 146.864 28.4209C146.504 28.7035 146.324 29.0977 146.324 29.6035C146.324 30.0091 146.495 30.3532 146.837 30.6357C147.183 30.9137 147.769 31.1689 148.594 31.4014C149.423 31.6338 150.07 31.8913 150.535 32.1738C151.005 32.4518 151.351 32.7777 151.574 33.1514C151.802 33.5251 151.916 33.9648 151.916 34.4707C151.916 35.2773 151.602 35.9245 150.973 36.4121C150.344 36.8952 149.503 37.1367 148.45 37.1367C147.767 37.1367 147.129 37.0068 146.536 36.7471C145.944 36.4827 145.486 36.1227 145.162 35.667C144.843 35.2113 144.684 34.694 144.684 34.1152H146.003C146.003 34.7168 146.224 35.193 146.666 35.5439C147.113 35.8903 147.707 36.0635 148.45 36.0635C149.143 36.0635 149.674 35.9222 150.043 35.6396C150.412 35.3571 150.597 34.972 150.597 34.4844C150.597 33.9967 150.426 33.6208 150.084 33.3564C149.742 33.0876 149.122 32.8232 148.225 32.5635ZM155.122 27.8125V29.6035H156.503V30.5811H155.122V35.168C155.122 35.4642 155.184 35.6875 155.307 35.8379C155.43 35.9837 155.639 36.0566 155.936 36.0566C156.081 36.0566 156.282 36.0293 156.537 35.9746V37C156.204 37.0911 155.881 37.1367 155.566 37.1367C155.001 37.1367 154.575 36.9658 154.288 36.624C154.001 36.2822 153.857 35.7969 153.857 35.168V30.5811H152.511V29.6035H153.857V27.8125H155.122ZM162.553 37C162.48 36.8542 162.421 36.5944 162.375 36.2207C161.787 36.8314 161.085 37.1367 160.27 37.1367C159.54 37.1367 158.941 36.9316 158.472 36.5215C158.007 36.1068 157.774 35.5827 157.774 34.9492C157.774 34.179 158.066 33.582 158.649 33.1582C159.237 32.7298 160.062 32.5156 161.124 32.5156H162.354V31.9346C162.354 31.4925 162.222 31.1416 161.958 30.8818C161.694 30.6175 161.304 30.4854 160.789 30.4854C160.338 30.4854 159.96 30.5993 159.654 30.8271C159.349 31.055 159.196 31.3307 159.196 31.6543H157.925C157.925 31.2852 158.055 30.9297 158.314 30.5879C158.579 30.2415 158.934 29.9681 159.381 29.7676C159.832 29.5671 160.326 29.4668 160.864 29.4668C161.716 29.4668 162.384 29.681 162.867 30.1094C163.35 30.5332 163.601 31.1188 163.619 31.8662V35.2705C163.619 35.9495 163.706 36.4896 163.879 36.8906V37H162.553ZM160.454 36.0361C160.851 36.0361 161.227 35.9336 161.582 35.7285C161.938 35.5234 162.195 35.2568 162.354 34.9287V33.4111H161.363C159.814 33.4111 159.039 33.8646 159.039 34.7715C159.039 35.168 159.171 35.4779 159.436 35.7012C159.7 35.9245 160.039 36.0361 160.454 36.0361ZM166.798 29.6035L166.839 30.5332C167.404 29.8223 168.142 29.4668 169.054 29.4668C170.617 29.4668 171.405 30.3486 171.419 32.1123V37H170.154V32.1055C170.15 31.5723 170.027 31.1781 169.785 30.9229C169.548 30.6676 169.177 30.54 168.671 30.54C168.261 30.54 167.901 30.6494 167.591 30.8682C167.281 31.0869 167.039 31.374 166.866 31.7295V37H165.602V29.6035H166.798ZM173.019 33.2402C173.019 32.1055 173.287 31.194 173.825 30.5059C174.363 29.8132 175.067 29.4668 175.938 29.4668C176.803 29.4668 177.489 29.763 177.995 30.3555V26.5H179.26V37H178.098L178.036 36.207C177.53 36.8268 176.826 37.1367 175.924 37.1367C175.067 37.1367 174.368 36.7858 173.825 36.084C173.287 35.3822 173.019 34.4661 173.019 33.3359V33.2402ZM174.283 33.3838C174.283 34.2223 174.456 34.8786 174.803 35.3525C175.149 35.8265 175.628 36.0635 176.238 36.0635C177.04 36.0635 177.626 35.7035 177.995 34.9834V31.5859C177.617 30.8887 177.036 30.54 176.252 30.54C175.632 30.54 175.149 30.7793 174.803 31.2578C174.456 31.7363 174.283 32.445 174.283 33.3838ZM185.795 37C185.722 36.8542 185.663 36.5944 185.617 36.2207C185.029 36.8314 184.327 37.1367 183.512 37.1367C182.783 37.1367 182.183 36.9316 181.714 36.5215C181.249 36.1068 181.017 35.5827 181.017 34.9492C181.017 34.179 181.308 33.582 181.892 33.1582C182.479 32.7298 183.304 32.5156 184.366 32.5156H185.597V31.9346C185.597 31.4925 185.465 31.1416 185.2 30.8818C184.936 30.6175 184.546 30.4854 184.031 30.4854C183.58 30.4854 183.202 30.5993 182.896 30.8271C182.591 31.055 182.438 31.3307 182.438 31.6543H181.167C181.167 31.2852 181.297 30.9297 181.557 30.5879C181.821 30.2415 182.176 29.9681 182.623 29.7676C183.074 29.5671 183.569 29.4668 184.106 29.4668C184.959 29.4668 185.626 29.681 186.109 30.1094C186.592 30.5332 186.843 31.1188 186.861 31.8662V35.2705C186.861 35.9495 186.948 36.4896 187.121 36.8906V37H185.795ZM183.696 36.0361C184.093 36.0361 184.469 35.9336 184.824 35.7285C185.18 35.5234 185.437 35.2568 185.597 34.9287V33.4111H184.605C183.056 33.4111 182.281 33.8646 182.281 34.7715C182.281 35.168 182.413 35.4779 182.678 35.7012C182.942 35.9245 183.282 36.0361 183.696 36.0361ZM192.419 30.7383C192.228 30.7064 192.02 30.6904 191.797 30.6904C190.967 30.6904 190.405 31.0436 190.108 31.75V37H188.844V29.6035H190.074L190.095 30.458C190.509 29.7972 191.097 29.4668 191.858 29.4668C192.104 29.4668 192.291 29.4987 192.419 29.5625V30.7383ZM193.144 33.2402C193.144 32.1055 193.412 31.194 193.95 30.5059C194.488 29.8132 195.192 29.4668 196.062 29.4668C196.928 29.4668 197.614 29.763 198.12 30.3555V26.5H199.385V37H198.223L198.161 36.207C197.655 36.8268 196.951 37.1367 196.049 37.1367C195.192 37.1367 194.493 36.7858 193.95 36.084C193.412 35.3822 193.144 34.4661 193.144 33.3359V33.2402ZM194.408 33.3838C194.408 34.2223 194.581 34.8786 194.928 35.3525C195.274 35.8265 195.753 36.0635 196.363 36.0635C197.165 36.0635 197.751 35.7035 198.12 34.9834V31.5859C197.742 30.8887 197.161 30.54 196.377 30.54C195.757 30.54 195.274 30.7793 194.928 31.2578C194.581 31.7363 194.408 32.445 194.408 33.3838ZM211.628 28.127H208.429V37H207.123V28.127H203.931V27.0469H211.628V28.127ZM214.28 37H213.016V29.6035H214.28V37ZM212.913 27.6416C212.913 27.4365 212.975 27.2633 213.098 27.1221C213.225 26.9808 213.412 26.9102 213.658 26.9102C213.904 26.9102 214.091 26.9808 214.219 27.1221C214.346 27.2633 214.41 27.4365 214.41 27.6416C214.41 27.8467 214.346 28.0176 214.219 28.1543C214.091 28.291 213.904 28.3594 213.658 28.3594C213.412 28.3594 213.225 28.291 213.098 28.1543C212.975 28.0176 212.913 27.8467 212.913 27.6416ZM217.5 29.6035L217.534 30.4238C218.076 29.7858 218.808 29.4668 219.729 29.4668C220.763 29.4668 221.467 29.8633 221.841 30.6562C222.087 30.3008 222.406 30.0137 222.798 29.7949C223.194 29.5762 223.661 29.4668 224.199 29.4668C225.822 29.4668 226.646 30.3258 226.674 32.0439V37H225.409V32.1191C225.409 31.5905 225.288 31.1963 225.047 30.9365C224.805 30.6722 224.4 30.54 223.83 30.54C223.361 30.54 222.971 30.6813 222.661 30.9639C222.351 31.2419 222.171 31.6178 222.121 32.0918V37H220.85V32.1533C220.85 31.0778 220.323 30.54 219.271 30.54C218.441 30.54 217.874 30.8932 217.568 31.5996V37H216.304V29.6035H217.5ZM231.657 37.1367C230.655 37.1367 229.839 36.8086 229.21 36.1523C228.581 35.4915 228.267 34.6097 228.267 33.5068V33.2744C228.267 32.5407 228.406 31.8867 228.684 31.3125C228.966 30.7337 229.358 30.2826 229.859 29.959C230.365 29.6309 230.912 29.4668 231.5 29.4668C232.462 29.4668 233.209 29.7835 233.742 30.417C234.275 31.0505 234.542 31.9574 234.542 33.1377V33.6641H229.531C229.549 34.3932 229.761 34.9834 230.167 35.4346C230.577 35.8812 231.097 36.1045 231.726 36.1045C232.172 36.1045 232.55 36.0133 232.86 35.8311C233.17 35.6488 233.441 35.4072 233.674 35.1064L234.446 35.708C233.826 36.6605 232.897 37.1367 231.657 37.1367ZM231.5 30.5059C230.99 30.5059 230.561 30.6927 230.215 31.0664C229.868 31.4355 229.654 31.9551 229.572 32.625H233.277V32.5293C233.241 31.8867 233.068 31.39 232.758 31.0391C232.448 30.6836 232.029 30.5059 231.5 30.5059Z" fill="black"/>
<path d="M38.5 44.6L34.5 40.6L36.6 38.5L40.6 42.5C41.2 43.1 41.2 44 40.6 44.6C40.1 45.1 39.1 45.1 38.5 44.6Z" fill="black"/>
<path d="M9.50001 44.6L13.5 40.6L11.4 38.5L7.40001 42.5C6.80001 43.1 6.80001 44 7.40001 44.6C7.90001 45.1 8.90001 45.1 9.50001 44.6Z" fill="black"/>
<path d="M24 44C35.0457 44 44 35.0457 44 24C44 12.9543 35.0457 4 24 4C12.9543 4 4 12.9543 4 24C4 35.0457 12.9543 44 24 44Z" fill="#D82830"/>
<path d="M24 40C32.8366 40 40 32.8366 40 24C40 15.1634 32.8366 8 24 8C15.1634 8 8 15.1634 8 24C8 32.8366 15.1634 40 24 40Z" fill="#EEEEEE"/>
<path d="M15.096 33.48L14.53 32.914L23.721 23.723L24.287 24.288L15.096 33.48Z" fill="#D82830"/>
<path d="M23 11H25V24H23V11Z" fill="black"/>
<path d="M31.285 29.654L29.66 31.28L23.156 24.776L24.782 23.149L31.285 29.654Z" fill="black"/>
<path d="M24 26C25.1046 26 26 25.1046 26 24C26 22.8954 25.1046 22 24 22C22.8954 22 22 22.8954 22 24C22 25.1046 22.8954 26 24 26Z" fill="black"/>
<path d="M24 25C24.5523 25 25 24.5523 25 24C25 23.4477 24.5523 23 24 23C23.4477 23 23 23.4477 23 24C23 24.5523 23.4477 25 24 25Z" fill="#D82830"/>
<path d="M22 1H26V4H22V1Z" fill="#37474F"/>
<path d="M44.4 16.2C46.9 12.7 46.5 7.79999 43.4 4.69999C40.3 1.59999 35.4 1.19999 31.9 3.69999L44.4 16.2Z" fill="black"/>
<path d="M3.59999 16.2C1.09999 12.7 1.49999 7.79999 4.59999 4.69999C7.69999 1.59999 12.6 1.19999 16.1 3.69999L3.59999 16.2Z" fill="black"/>
</svg>
